<svg width="40" height="30" viewBox="0 0 40 30" fill="none" xmlns="http://www.w3.org/2000/svg">
<path d="M12.3667 10.8569C12.0667 10.517 11.6 10.3683 10.9667 10.3683H10L10.0333 15.5524L10.1 20.7578L11.0333 20.7153C11.7167 20.7153 12.0833 20.5666 12.4167 20.1629C12.8167 19.653 12.85 19.398 12.85 15.4887C12.85 11.4306 12.8167 11.3244 12.3667 10.8569V10.8569ZM0 0V30H40V0H0ZM14.2667 22.0113C13.5333 23.2436 12.5 23.6473 10.05 23.6473H7.85V7.62748H10.1833C12.9667 7.62748 13.7833 8.00992 14.5167 9.53966C14.9667 10.4533 15 10.8144 15.05 15C15.1333 19.738 15.0167 20.8003 14.2667 22.0113V22.0113ZM22.75 10.3895H18.6333V14.1501H21.1667V16.8697L19.9667 16.9547L18.7167 17.0184V20.779L20.75 20.8428L22.75 20.9278V23.6473H20.0833C17.5333 23.6473 17.4167 23.6261 16.9667 23.0099L16.4667 22.415V15.7011C16.4667 9.2847 16.4833 8.94476 16.8833 8.30737C17.2667 7.64873 17.3 7.64873 20.0167 7.64873H22.75V10.4108V10.3895ZM30.55 21.9688C30.2667 22.8824 29.4833 23.6473 28.8833 23.6473C28.5833 23.6473 28.1333 23.3286 27.7667 22.8187C27.2333 22.1388 27.0167 21.4802 26.4 18.3994L24.9 11.1969L24.15 7.64873H25.4167C26.0833 7.64873 26.6667 7.69122 26.6667 7.75496C26.6667 7.88244 28.6 17.4008 28.7667 18.017C28.8333 18.3357 29.3 16.5297 29.9833 13.1303L31.0833 7.7762L32.3167 7.69122C32.9833 7.64873 33.5333 7.69122 33.5333 7.7762C33.5333 8.07366 30.75 21.3314 30.5333 21.9688H30.55Z" fill="#171717"/>
</svg>
