<svg width="30" height="21" viewBox="0 0 30 21" fill="none" xmlns="http://www.w3.org/2000/svg">
<path d="M14.6782 13.5C15.4941 13.5 16.2767 13.1839 16.8536 12.6213C17.4306 12.0587 17.7548 11.2956 17.7548 10.5C17.7548 9.70435 17.4306 8.94129 16.8536 8.37868C16.2767 7.81607 15.4941 7.5 14.6782 7.5C13.8622 7.5 13.0797 7.81607 12.5027 8.37868C11.9257 8.94129 11.6016 9.70435 11.6016 10.5C11.6016 11.2956 11.9257 12.0587 12.5027 12.6213C13.0797 13.1839 13.8622 13.5 14.6782 13.5Z" fill="#5D55FA"/>
<path fill-rule="evenodd" clip-rule="evenodd" d="M0 10.5C1.95979 4.4145 7.78994 0 14.6784 0C21.5669 0 27.3971 4.4145 29.3569 10.5C27.3971 16.5855 21.5669 21 14.6784 21C7.78994 21 1.95979 16.5855 0 10.5ZM20.8316 10.5C20.8316 12.0913 20.1833 13.6174 19.0294 14.7426C17.8755 15.8679 16.3104 16.5 14.6784 16.5C13.0465 16.5 11.4814 15.8679 10.3275 14.7426C9.17353 13.6174 8.52525 12.0913 8.52525 10.5C8.52525 8.9087 9.17353 7.38258 10.3275 6.25736C11.4814 5.13214 13.0465 4.5 14.6784 4.5C16.3104 4.5 17.8755 5.13214 19.0294 6.25736C20.1833 7.38258 20.8316 8.9087 20.8316 10.5Z" fill="#5D55FA"/>
</svg>
