<svg width="35" height="34" viewBox="0 0 35 34" fill="none" xmlns="http://www.w3.org/2000/svg">
<path d="M17.5 0C7.83125 0 0 7.80501 0 17.4316C0 25.135 5.01375 31.6675 11.9656 33.9699C12.8406 34.134 13.1615 33.5951 13.1615 33.1317C13.1615 32.7177 13.1469 31.621 13.1396 30.1683C8.27167 31.22 7.245 27.8296 7.245 27.8296C6.44875 25.8177 5.29812 25.2802 5.29812 25.2802C3.71292 24.1995 5.42063 24.2212 5.42063 24.2212C7.17792 24.3433 8.10104 26.0167 8.10104 26.0167C9.66146 28.6823 12.1975 27.9124 13.1979 27.4664C13.3554 26.3392 13.806 25.5707 14.3063 25.135C10.4198 24.6992 6.335 23.2 6.335 16.5208C6.335 14.6179 7.01313 13.0636 8.13604 11.8433C7.93917 11.4032 7.34854 9.63097 8.28917 7.22977C8.28917 7.22977 9.75479 6.76202 13.1017 9.01651C14.5017 8.62866 15.9892 8.43691 17.4767 8.42819C18.9642 8.43691 20.4517 8.62866 21.8517 9.01651C25.1767 6.76202 26.6423 7.22977 26.6423 7.22977C27.5829 9.63097 26.9923 11.4032 26.8173 11.8433C27.9329 13.0636 28.611 14.6179 28.611 16.5208C28.611 23.2175 24.5204 24.6919 20.6267 25.1204C21.2392 25.6434 21.8079 26.7125 21.8079 28.3453C21.8079 30.6782 21.786 32.5521 21.786 33.1186C21.786 33.5762 22.0923 34.121 22.9892 33.9466C29.9906 31.6602 35 25.1233 35 17.4316C35 7.80501 27.1644 0 17.5 0Z" fill="#FEFEFE"/>
</svg>
