<svg width="361" height="364" viewBox="0 0 361 364" fill="none" xmlns="http://www.w3.org/2000/svg">
<path d="M236.462 312.905C229.004 320.034 218.868 323.194 208.679 321.564L112.166 306.128C101.364 304.4 91.6668 297.478 85.8702 287.356L37.8094 203.429C31.8172 192.966 30.6924 180.307 34.7792 169.328L68.6951 78.2107C72.4909 68.0131 80.3817 60.3498 90.2552 57.2723L183.745 28.1319C193.618 25.0544 204.466 26.8771 213.383 33.1119L293.064 88.821C302.666 95.5339 308.933 106.59 309.947 118.605L318.084 214.975C319.066 226.598 315.019 237.805 307.112 245.364L236.462 312.905Z" fill="#5D55FA"/>
<path d="M231.406 303.552C224.726 310.104 215.593 312.951 206.373 311.355L119.034 296.232C109.258 294.539 100.438 288.037 95.1164 278.598L50.9901 200.34C45.4884 190.583 44.3668 178.83 47.9684 168.679L77.8577 84.4318C81.2028 75.0031 88.2694 67.9595 97.1656 65.1866L181.402 38.9304C190.298 36.1575 200.115 37.9385 208.225 43.7967L280.689 96.1405C289.421 102.448 295.176 112.756 296.193 123.911L304.347 213.382C305.33 224.173 301.767 234.535 294.684 241.482L231.406 303.552Z" fill="#7069FA"/>
<path d="M228.433 295.071C222.224 301.173 213.731 303.82 205.155 302.327L123.912 288.182C114.819 286.599 106.611 280.534 101.656 271.735L60.5667 198.784C55.4437 189.688 54.3934 178.736 57.7371 169.278L85.4859 90.7909C88.5915 82.0068 95.1598 75.4474 103.432 72.8689L181.764 48.4531C190.037 45.8746 199.169 47.5402 206.716 53.004L274.146 101.825C282.271 107.707 287.63 117.317 288.582 127.712L296.22 211.09C297.141 221.146 293.834 230.8 287.251 237.27L228.433 295.071Z" fill="#8888FC"/>
<path d="M224.563 285.541C218.77 291.145 210.874 293.606 202.922 292.287L127.599 279.791C119.169 278.393 111.583 272.897 107.03 264.889L69.2745 198.492C64.5672 190.214 63.649 180.219 66.801 171.566L92.9586 99.7583C95.886 91.7218 102.016 85.6987 109.706 83.3016L182.527 60.6035C190.218 58.2063 198.684 59.68 205.659 64.6298L267.985 108.858C275.495 114.187 280.419 122.934 281.249 132.421L287.906 208.511C288.709 217.688 285.59 226.52 279.447 232.461L224.563 285.541Z" fill="#A8ABFF"/>
<path d="M220.05 276.18C214.721 281.313 207.466 283.575 200.164 282.379L130.995 271.048C123.254 269.78 116.294 264.764 112.122 257.445L77.5307 196.761C73.2179 189.195 72.3877 180.054 75.2942 172.135L99.4146 106.418C102.114 99.0636 107.752 93.5462 114.819 91.3435L181.736 70.4858C188.803 68.283 196.577 69.6198 202.978 74.1382L260.166 114.511C267.057 119.376 271.568 127.37 272.318 136.047L278.333 205.637C279.058 214.03 276.181 222.113 270.531 227.556L220.05 276.18Z" fill="#DFDFFB"/>
<path d="M216.084 265.337C211.344 269.874 204.899 271.883 198.42 270.843L137.048 260.988C130.178 259.885 124.011 255.475 120.322 249.029L89.7389 195.583C85.9258 188.919 85.207 180.86 87.8026 173.87L109.343 115.869C111.753 109.378 116.769 104.501 123.046 102.544L182.484 84.0177C188.761 82.0611 195.659 83.2246 201.331 87.1966L252.012 122.687C258.119 126.963 262.107 134.004 262.756 141.654L267.956 203.012C268.584 210.412 266.014 217.546 260.988 222.356L216.084 265.337Z" fill="#F0F0F0"/>
</svg>
