<svg width="34" height="34" viewBox="0 0 34 34" fill="none" xmlns="http://www.w3.org/2000/svg">
<path d="M28.9666 28.9737H23.9317V21.0842C23.9317 19.2029 23.8935 16.7818 21.3081 16.7818C18.683 16.7818 18.2821 18.8289 18.2821 20.9454V28.9737H13.2472V12.75H18.0837V14.9614H18.1489C18.8247 13.6864 20.468 12.3406 22.9231 12.3406C28.0245 12.3406 28.968 15.6981 28.968 20.0685V28.9737H28.9666ZM7.56075 10.5301C5.94008 10.5301 4.63817 9.21825 4.63817 7.60467C4.63817 5.9925 5.9415 4.68208 7.56075 4.68208C9.17575 4.68208 10.4847 5.9925 10.4847 7.60467C10.4847 9.21825 9.17433 10.5301 7.56075 10.5301ZM10.0852 28.9737H5.03625V12.75H10.0852V28.9737ZM31.4854 0H2.50892C1.122 0 0 1.0965 0 2.44942V31.5506C0 32.9049 1.122 34 2.50892 34H31.4812C32.8667 34 34 32.9049 34 31.5506V2.44942C34 1.0965 32.8667 0 31.4812 0H31.4854Z" fill="#0A66C2"/>
</svg>
