<svg width="22" height="25" viewBox="0 0 22 25" fill="none" xmlns="http://www.w3.org/2000/svg">
<path d="M12.5714 23.4382C12.5716 23.7045 12.6401 23.9663 12.7706 24.1988C12.9011 24.4313 13.0891 24.6268 13.3169 24.7667C13.5447 24.9067 13.8047 24.9864 14.0722 24.9984C14.3396 25.0104 14.6058 24.9542 14.8453 24.8352L21.131 21.71C21.392 21.5803 21.6115 21.3809 21.765 21.1342C21.9185 20.8875 21.9998 20.6031 22 20.313V11.3062C21.9999 11.0399 21.9313 10.7781 21.8008 10.5456C21.6704 10.3131 21.4823 10.1176 21.2545 9.97765C21.0267 9.83771 20.7668 9.75796 20.4993 9.74598C20.2318 9.734 19.9657 9.79019 19.7261 9.9092L13.4404 13.0344C13.1794 13.1641 12.9599 13.3635 12.8064 13.6102C12.653 13.8569 12.5716 14.1413 12.5714 14.4314V23.4382ZM19.1887 6.68086C19.4494 6.55095 19.6686 6.35148 19.8217 6.10477C19.9749 5.85806 20.056 5.57383 20.056 5.28389C20.056 4.99395 19.9749 4.70973 19.8217 4.46302C19.6686 4.21631 19.4494 4.01684 19.1887 3.88692L11.7024 0.164801C11.4843 0.0564216 11.2438 0 11 0C10.7562 0 10.5157 0.0564216 10.2976 0.164801L2.81129 3.88692C2.55061 4.01684 2.33143 4.21631 2.17826 4.46302C2.02509 4.70973 1.94396 4.99395 1.94396 5.28389C1.94396 5.57383 2.02509 5.85806 2.17826 6.10477C2.33143 6.35148 2.55061 6.55095 2.81129 6.68086L10.2976 10.403C10.5157 10.5114 10.7562 10.5678 11 10.5678C11.2438 10.5678 11.4843 10.5114 11.7024 10.403L19.1887 6.68086ZM2.27386 9.9092C2.03434 9.79019 1.76821 9.734 1.50072 9.74598C1.23324 9.75796 0.973266 9.83771 0.745477 9.97765C0.517688 10.1176 0.329637 10.3131 0.199169 10.5456C0.0687011 10.7781 0.000142952 11.0399 0 11.3062V20.313C0.000155805 20.6031 0.0815306 20.8875 0.235011 21.1342C0.388491 21.3809 0.608016 21.5803 0.869 21.71L7.15471 24.8352C7.39423 24.9542 7.66036 25.0104 7.92785 24.9984C8.19533 24.9864 8.45531 24.9067 8.68309 24.7667C8.91088 24.6268 9.09893 24.4313 9.2294 24.1988C9.35987 23.9663 9.42843 23.7045 9.42857 23.4382V14.4314C9.42842 14.1413 9.34704 13.8569 9.19356 13.6102C9.04008 13.3635 8.82055 13.1641 8.55957 13.0344L2.27386 9.9092Z" fill="#5D55FA"/>
</svg>
