<svg width="970" height="939" viewBox="0 0 970 939" fill="none" xmlns="http://www.w3.org/2000/svg">
<path d="M361.267 198.467C374.685 202.568 378.461 219.763 367.996 229.108L234.413 348.39C224.142 357.562 207.796 352.274 204.843 338.825L167.156 167.203C164.203 153.753 176.829 142.103 189.998 146.128L361.267 198.467Z" fill="#8888FC"/>
<path d="M205.559 405.336C216.439 396.478 232.822 402.923 234.752 416.82L259.383 594.207C261.276 607.846 247.778 618.474 234.964 613.433L71.4491 549.112C58.6352 544.071 55.9956 527.095 66.6741 518.402L205.559 405.336Z" fill="#8F8FFF"/>
<path d="M419.398 766.556C430.277 775.416 427.286 792.764 414.068 797.47L245.353 857.537C232.381 862.155 219.238 851.091 221.578 837.522L251.428 664.364C253.768 650.795 269.856 644.77 280.533 653.465L419.398 766.556Z" fill="#8F8FFF"/>
<path d="M711.161 801.515C716.446 814.513 705.488 828.291 691.634 826.068L514.808 797.689C501.213 795.507 495.002 779.489 503.573 768.712L612.946 631.191C621.517 620.414 638.522 622.86 643.708 635.615L711.161 801.515Z" fill="#9999FF"/>
<path d="M512.829 27.736C519.718 15.5423 537.282 15.5422 544.171 27.736L632.405 183.895C639.185 195.895 630.516 210.75 616.734 210.75H440.266C426.484 210.75 417.815 195.895 424.595 183.895L512.829 27.736Z" fill="#7069FA"/>
<path d="M824.914 120.266C837.18 113.455 852.177 122.674 851.639 136.694L844.76 315.65C844.231 329.41 829.077 337.504 817.347 330.294L667.656 238.277C655.925 231.066 656.305 213.89 668.344 207.206L824.914 120.266Z" fill="#5D55FA"/>
</svg>
