<svg width="35" height="30" viewBox="0 0 35 30" fill="none" xmlns="http://www.w3.org/2000/svg">
<path d="M34.9315 3.57343C33.6211 4.18185 32.233 4.58346 30.8117 4.76534C32.3081 3.81681 33.4285 2.3293 33.966 0.577507C32.5792 1.43107 31.0421 2.0524 29.4058 2.39844C28.3263 1.18104 26.8958 0.373608 25.3366 0.101515C23.7773 -0.170579 22.1764 0.107896 20.7826 0.893695C19.3888 1.67949 18.28 2.92865 17.6284 4.44718C16.9768 5.9657 16.8189 7.66863 17.1792 9.29152C11.2146 8.9947 5.93104 5.97263 2.39167 1.408C1.74824 2.56117 1.41263 3.87645 1.42042 5.21442C1.42042 7.84431 2.68917 10.1558 4.61125 11.5139C3.47208 11.4756 2.35808 11.1508 1.36208 10.5665V10.6588C1.36144 12.4065 1.93414 14.1006 2.98303 15.4537C4.03192 16.8068 5.49239 17.7356 7.11667 18.0824C6.06419 18.3798 4.96185 18.4245 3.89083 18.2132C4.35184 19.7173 5.24659 21.0321 6.45023 21.9742C7.65387 22.9163 9.10635 23.4386 10.605 23.4683C8.06681 25.5691 4.93278 26.7093 1.70625 26.7057C1.1375 26.7057 0.570208 26.6703 0 26.6027C3.28958 28.824 7.1145 30.0031 11.0206 30C24.2229 30 31.4344 18.4715 31.4344 8.49179C31.4344 8.16882 31.4344 7.84585 31.4125 7.52288C32.8212 6.4538 34.0364 5.12648 35 3.60419L34.9315 3.57343Z" fill="#1DA1F2"/>
</svg>
